<svg id="Layer_1" data-name="Layer 1" xmlns="http://www.w3.org/2000/svg" viewBox="0 0 1000 1000"><title>octopus</title><path style="fill:#ffffff" d="M970.62,674.78c-.82-1.51-2.92-1.7-4.6-1.35-4.34.91-7.83,4-11.1,7-11.72,10.8-21.53,21.38-37.92,24.66-14.34,2.87-29.17.06-42.93-4.23-8.33-2.6-16.27-6.44-26.59-10.59,5.87-8.73,10.5-16,15.54-23,19.75-27.44,31.49-57.73,31.65-91.77.07-16.18,9.94-25.79,20.83-35,24.23-20.42,35.48-47.25,38.69-78,2.48-23.69-4.05-43.75-26-56-23-12.87-46.5-18.7-72-1.3-3.26-4.54-6.46-9-9.71-13.52-12.32-17-28-29.63-48.19-35.78-14.28-4.34-28-2.93-40,6.75-11.15,9-16.51,20.15-12.09,34.52,3.92,12.75,20.34,26.42,32.07,27.08,6.23.35,12.22-2.59,14.13-8.82,1.86-6.08.06-13.72-7.74-12.06-2.35.5-4.52,1.6-6.85,2.21a6.39,6.39,0,0,1-3.49.12c-2.35-.73-3.46-3.42-3.82-5.86-2.16-14.79,8.89-25.89,23.14-18.67,35.49,18,43.9,59.8,18,89.32-15.79,18-34.74,30-59.1,31.86-22.39,1.74-44.79,4.32-67.2,4.44-11.79.07-23.61-4.32-35.41-6.69q0-3.94-.09-7.88c11.72-2.23,23.36-5.65,35.18-6.43,18.36-1.21,34.93-5.3,48.48-18.66,19-18.77,18.19-43.62-3.38-59.37-7.82-5.71-17.48-9.12-26.67-12.64-5.77-2.21-12.24-2.6-18.37-3.92-40.86-8.76-51-33.52-28.08-68.56,3.19-4.88,7.86-10.79,14.43-9.69,6.39,1.07,13,8.4,15.85,13.81,1.3,2.45,2.18,5.13,3.8,7.38a2.77,2.77,0,0,0,1,1c5.77,2.71,5.22-10.8,4.6-13.51-1.79-7.8-7.87-12.86-13.57-17.66-8.67-7.31-18.72-10.71-28.46-2.44-21,17.85-30.6,41.78-27.71,68.37,2.61,24,21.3,35.8,43.31,42.21,9.51,2.77,19.27,5,28.31,8.94,7.9,3.41,10.39,12.44,1.83,15.18-30.4,9.73-60.73,23.73-94,11.93-1.35-.48-2.39-1.86-3.56-2.81,17.44-24.14,8-61.21-17.81-74.6-4.73-2.45-9.07-9.55-9.88-15.06-7.23-49-23.2-94.19-53.66-133.79-18.63-24.21-41.82-42.3-70.37-53.16-41.82-15.91-77.41-3.58-98.31,35.8-22.89,43.12-26.67,88.77-4,132.48,12.7,24.53,32.46,45.51,49.82,67.48,10.3,13,22.72,24.4,32.87,37.54,3.09,4,4.31,13.2,1.79,16.75-2.71,3.81-10.77,4.69-16.62,5.1-4.42.31-9.3-1.54-13.52-3.44-14.87-6.7-29.64-7.5-45.78-4-17.93,3.88-36-9-44.78-23.8-6.09-10.27-8.51-25.19-1.21-35.52,4-5.64,9.82-8.36,16.51-9.06S339,390.94,343.08,396c2.24,2.75,4.33,5.77,5.07,9.24s-.16,7.49-3,9.62a7.39,7.39,0,0,1-7.13.9c-1.41-.59-2.6-1.61-4-2.31a4.61,4.61,0,0,0-4.38-.27c-3.35,2,.62,8.71,2.77,10.24,4,2.84,9.6,1.31,13.71-.38,18-7.41,23.45-24.63,12.91-41.09-11.51-18-35.86-25.78-56.83-18.23-20.3,7.31-32.26,26.07-29.5,48.12,4.88,39,20,70.39,62.84,79.35-.73,2-.81,3.46-1.4,3.71-44.07,18.81-87,41.27-132.61,55.21C154.16,564.61,98,529.76,81.15,482.57,71,454.23,92.4,404.64,119.92,392.86c11.6-5,22.64-4.14,32,4.88,7.31,7.08,11,17,7.53,26.9-2.9,8.28-7.73,16.31-17.74,16.07-4.66-.11-7.66-2.79-8.45-7.34s1.28-9.13,3.76-13a9.53,9.53,0,0,0,1.41-2.79c1.25-5.18-6.27-4.19-8.91-2.77-3.65,2-5.95,6.14-7.64,9.76-6.41,13.71,3.94,34.43,18.42,37.21,9.08,1.75,18.85-1.82,25.14-8.36,19.14-19.91,19.42-50.09,1-74.68C149,355.56,126.11,350,100,364.08S55.44,396.65,46.38,425a150.58,150.58,0,0,0-5.88,64.78c2.64,20.47,12,35,24.89,50.86,24.34,30.09,60.25,55,99.65,58.53,14.71,1.31,30.77,0,44.68-4.64,53.39-17.86,106.15-37.61,159.19-56.55,7.85-2.8,15.78-5.66,23.91-7.23,3.47-.67,9.17.77,10.91,3.29s1,8.46-1,11.24a111,111,0,0,1-15.8,17.16c-27.42,25-55.58,49.17-82.41,74.76-17.88,17.05-32.71,36.73-37.53,62.08-2.66,14-3,29.61,5.19,42,8.92,13.43,25.1,16.5,40.17,16.63,19.71.17,38.77-5.81,57.05-12.64,18.74-7,37.37-13.86,56-21.21l11.95-4.72c1.94-.77,4.06-1.54,6.06-1,2.72.79,4.12,3.7,5.49,6.18,12.36,22.36,40.21,26.37,62.77,19.67a216.15,216.15,0,0,0,49.65-22.34,50.8,50.8,0,0,1,7.74-3.58c23.3-9.24,47-17.49,71.49-23.15,3.93-.91,10,2.25,13.47,5.31,43.23,37.69,91.77,44.11,142.63,20.4,20.32-9.48,36.81-10.17,57.56-3.08a173.77,173.77,0,0,0,30.24,7.75c17,2.55,34.22,1,49.46-7.35A92.51,92.51,0,0,0,954.71,702c4.92-4.95,12.34-11.54,15.18-18.83a15.46,15.46,0,0,0,1.14-6.73A4.14,4.14,0,0,0,970.62,674.78ZM858.93,472.65c13.39,0,25.77,3.57,33.74-.83,9.33-5.17,12.91-17.43,7.74-26.51a2.21,2.21,0,0,0-1-1.07,2,2,0,0,0-1.35.09,10.31,10.31,0,0,0-6.79,8.38c-.65,5.58-2.19,10.32-8.61,11.36-5.55.89-10.2-3.17-13-7.56-6-9.47-3.66-28,4.89-34.78,11.14-8.86,20.6-3.2,29.19,4.61,15.7,14.28,21.14,38.35,13.32,57.43-9.18,22.4-40.28,48-59.62,44.59-22.71-4-41.89,1.83-61.68,11.06-16.58,7.73-29,7-40.67.77C800.13,530,842.72,516.57,858.93,472.65Zm-272.6-79.39c.49-2,1.57-8.48,3.9-9a1.85,1.85,0,0,1,.42,0,4.45,4.45,0,0,1,2.94,1.9c-.1,0-.2,0-.29,0-5.05.95-7.43,10.85-5.31,22.11s7.93,19.62,13,18.67a4.47,4.47,0,0,0,1.66-.72c-.78,2.81-2.52,4.46-6.53,2s-5.83-7.82-7.5-11.67A36.81,36.81,0,0,1,586.33,393.25ZM447.07,628.57c-2.54,19.17-.57,38.93-.57,53.12-19.66,7.25-35.6,12.51-51,19-17.25,7.22-33.68,16.59-51.27,22.72-5.81,2-16.42-1-20.56-5.57-3.5-3.86-3-14.35-.38-20.08,4.75-10.23,11.22-20.32,19.17-28.28,25.44-25.46,51.45-50.4,78.15-74.54,10.59-9.57,23.54-16.52,35.42-24.67l5.72,3.58C456.65,592.06,449.54,610,447.07,628.57Zm22.5-206.3c-.52-14.17,10-26.39,22.87-26.49,13.17-.1,24.46,12.34,24.57,27.07.1,14-9.35,25-21.95,25.46C481.69,448.85,470.12,437,469.58,422.28ZM583.93,680.92c-19,6.95-38,13.9-57.29,19.69A45,45,0,0,1,504.88,702c-3.44-.7-19.33-5.17-14.84-9.88,8.81-9.24,18-20.44,20-33.48.31-2,.4-4.21-.68-5.94s-3.74-2.56-5.21-1.15c-1.06,1-1.1,2.64-1.3,4.08a17.48,17.48,0,0,1-6.55,10.86,31.46,31.46,0,0,1-11.64,5.55,3.51,3.51,0,0,1-2,.13c-2.12-.73.91-9,1.44-10.67,10-30.71,26.71-59.22,41.27-90.37,24.81,33.41,46.51,62.53,68,91.78,1.75,2.37,2.3,5.62,3.82,9.48C592.54,675.49,588.6,679.21,583.93,680.92Zm115.58,3.94c-3.15-2.6-6.52-8.35-5.65-11.52,1.47-5.38,5.29-8.22,10-9.61,7.75-2.26,18-.66,24.62.15a135.18,135.18,0,0,1,50,16.76C758.83,697.29,716.23,698.68,699.51,684.86Zm95.55-23.22c-38.77-23.37-79.81-28.29-123.71-18.19-7.94,1.83-21.27-.4-25.69-5.9C624.92,611.7,606.4,584.05,587.2,557c-.23-.32.92-1.62,2.72-4.63-1.17,1.95,53.79,23.62,59,25.16a231.46,231.46,0,0,0,73.46,9.77c24.16-.79,52.61-4.12,73.86-16.44a46.67,46.67,0,0,0-9,44.54c3.06,9.23,8.86,15.23,18.53,16.49,8.2,1.07,17.1-2.75,21.14-10.14,2.68-4.89,5.45-10.9,4-16.6s-6-10.58-10.92-5c-1.67,1.92-2.71,4.3-4,6.47s-3.1,4.27-5.53,5a6.81,6.81,0,0,1-8.08-3.86,13.19,13.19,0,0,1-.63-4.64,37.76,37.76,0,0,1,.51-8.58c2.61-12.13,20.39-21.32,31.21-24.3,17.21-4.75,28.47,5.8,27.47,23.73-1.36,24.48-11,45.36-28.76,62.47C820.91,667.29,808.47,669.73,795.06,661.64Z"/><ellipse cx="493.46" cy="424.73" rx="19.99" ry="23.35"/></svg>
